<svg width="20" height="20" viewBox="0 0 20 20" fill="none" xmlns="http://www.w3.org/2000/svg">
<path d="M6.86358 17H13.1366C15.2669 17 17 15.2668 17 13.1365V6.86349C17 4.73313 15.2669 3 13.1366 3H6.86358C4.73313 3 3 4.73321 3 6.86349V13.1365C2.99992 15.2668 4.73313 17 6.86358 17ZM4.24206 6.86349C4.24206 5.41805 5.41805 4.24215 6.86349 4.24215H13.1366C14.582 4.24207 15.7579 5.41805 15.7579 6.86349V13.1365C15.7579 14.5819 14.582 15.7579 13.1366 15.7579H6.86358C5.41813 15.7579 4.24215 14.5819 4.24215 13.1365V6.86349H4.24206Z" fill="#081A20"/>
<path d="M10 14C12.2056 14 14 12.2056 14 9.99991C14 7.79432 12.2056 6 10 6C7.79437 6 6 7.79432 6 9.99991C6 12.2056 7.79437 14 10 14ZM10 7.37744C11.4461 7.37744 12.6227 8.55388 12.6227 10C12.6227 11.4462 11.4462 12.6227 10 12.6227C8.55382 12.6227 7.37731 11.4462 7.37731 10C7.37731 8.55388 8.55391 7.37744 10 7.37744Z" fill="#081A20"/>
<path d="M6 15C6.26273 15 6.52082 14.8936 6.70636 14.7073C6.89282 14.5218 7 14.2636 7 14C7 13.7372 6.89273 13.4791 6.70636 13.2927C6.52091 13.1073 6.26273 13 6 13C5.73636 13 5.47909 13.1073 5.29273 13.2927C5.10636 13.4791 5 13.7373 5 14C5 14.2636 5.10636 14.5218 5.29273 14.7073C5.47818 14.8936 5.73636 15 6 15Z" fill="#081A20"/>
<rect opacity="0.9" x="0.5" y="0.5" width="19" height="19" stroke="#081A20"/>
</svg>
