<svg width="20" height="20" viewBox="0 0 20 20" fill="none" xmlns="http://www.w3.org/2000/svg">
<path opacity="0.9" fill-rule="evenodd" clip-rule="evenodd" d="M14.9602 5.03455C13.6442 3.72324 11.8939 3.00077 10.0293 3C6.18704 3 3.06002 6.11197 3.05847 9.93685C3.05796 11.1595 3.3789 12.3531 3.98894 13.4052L3 17L6.69533 16.0353C7.71355 16.588 8.85986 16.8793 10.0264 16.8797H10.0294C13.8712 16.8797 16.9985 13.7675 17 9.94241C17.0008 8.08867 16.2764 6.34576 14.9602 5.03455ZM10.0293 15.7081H10.0269C8.98728 15.7077 7.96769 15.4296 7.07801 14.9044L6.86654 14.7793L4.67367 15.3519L5.25898 13.2241L5.12117 13.0059C4.54119 12.0879 4.23493 11.0268 4.23544 9.93728C4.23664 6.75814 6.8358 4.17168 10.0316 4.17168C11.5791 4.17219 13.0339 4.77273 14.1277 5.86263C15.2216 6.95254 15.8236 8.40125 15.8231 9.94198C15.8217 13.1214 13.2228 15.7081 10.0293 15.7081ZM13.2073 11.3896C13.0332 11.3028 12.1768 10.8835 12.0171 10.8256C11.8576 10.7678 11.7413 10.739 11.6253 10.9124C11.5092 11.0859 11.1754 11.4764 11.0738 11.592C10.9721 11.7077 10.8706 11.7222 10.6964 11.6354C10.5222 11.5487 9.96102 11.3656 9.29569 10.775C8.77795 10.3154 8.42842 9.74775 8.32676 9.57429C8.22527 9.40066 8.3259 9.31589 8.40317 9.22053C8.59172 8.98751 8.78053 8.74321 8.83857 8.6276C8.8967 8.5119 8.86759 8.41064 8.82397 8.32391C8.78053 8.23718 8.4322 7.38397 8.28709 7.03679C8.14559 6.69893 8.00212 6.74456 7.89514 6.73926C7.79365 6.73422 7.67749 6.73319 7.56132 6.73319C7.44523 6.73319 7.25651 6.77651 7.09681 6.95015C6.9372 7.12369 6.48729 7.54299 6.48729 8.3962C6.48729 9.24941 7.11141 10.0737 7.19847 10.1894C7.28553 10.3051 8.4267 12.0559 10.1739 12.8067C10.5894 12.9854 10.9138 13.092 11.1668 13.1719C11.5841 13.3038 11.9637 13.2852 12.2639 13.2406C12.5986 13.1908 13.2943 12.8212 13.4396 12.4163C13.5847 12.0114 13.5847 11.6644 13.541 11.592C13.4976 11.5197 13.3814 11.4764 13.2073 11.3896Z" fill="#081A20"/>
<rect opacity="0.9" x="0.5" y="0.5" width="19" height="19" stroke="#081A20"/>
</svg>
