<svg width="130" height="68" viewBox="0 0 130 68" fill="none" xmlns="http://www.w3.org/2000/svg">
<path fill-rule="evenodd" clip-rule="evenodd" d="M84.301 6.83401H104.59V44.833H84.301C83.953 45.176 83.595 45.51 83.229 45.833H105.59V5.83301H83.229C83.596 6.15701 83.953 6.49001 84.301 6.83301V6.83401ZM47.951 5.83401H25.59V45.833H47.951C47.5845 45.5097 47.227 45.1762 46.879 44.833H26.59V6.83301H46.879C47.227 6.49001 47.584 6.15701 47.951 5.83301V5.83401Z" fill="#039DFB"/>
<path d="M65.59 50C78.9371 50 89.757 39.1801 89.757 25.833C89.757 12.4859 78.9371 1.66602 65.59 1.66602C52.243 1.66602 41.423 12.4859 41.423 25.833C41.423 39.1801 52.243 50 65.59 50Z" stroke="#039DFB"/>
<path fill-rule="evenodd" clip-rule="evenodd" d="M65.59 44.5C75.899 44.5 84.257 36.142 84.257 25.833C84.257 15.523 75.899 7.16699 65.59 7.16699C55.28 7.16699 46.923 15.524 46.923 25.833C46.923 36.142 55.281 44.5 65.59 44.5ZM72.257 21.833C72.6115 21.8398 72.9639 21.7758 73.2934 21.6448C73.6229 21.5139 73.9229 21.3185 74.176 21.0702C74.4291 20.8218 74.6302 20.5255 74.7674 20.1986C74.9046 19.8716 74.9752 19.5206 74.9752 19.166C74.9751 18.8114 74.9043 18.4604 74.767 18.1335C74.6297 17.8066 74.4285 17.5103 74.1753 17.2621C73.9221 17.0139 73.622 16.8186 73.2924 16.6878C72.9629 16.5569 72.6105 16.4931 72.256 16.5C71.5578 16.5136 70.8927 16.8006 70.4038 17.2993C69.9149 17.798 69.641 18.4686 69.6412 19.167C69.6413 19.8654 69.9154 20.5358 70.4045 21.0343C70.8936 21.5328 71.5588 21.8196 72.257 21.833Z" fill="url(#paint0_linear)"/>
<path d="M28.757 1H34.424V2.667H28.757V1Z" stroke="#039DFB"/>
<path d="M96.09 9.66602H101.757V11.333H96.09V9.66602Z" stroke="#049DFB"/>
<path d="M0 67.5H1.408V63.727L2.863 62.091L6.908 67.5H8.613L3.726 61.114L8.613 55.864H6.772L1.545 61.636H1.408V55.864H0V67.5ZM12.823 67.705C14.346 67.705 15.141 66.886 15.413 66.318H15.482V67.5H16.823V61.75C16.823 58.977 14.709 58.659 13.596 58.659C12.277 58.659 10.777 59.114 10.096 60.705L11.368 61.159C11.664 60.523 12.363 59.841 13.641 59.841C14.874 59.841 15.482 60.494 15.482 61.614V61.659C15.482 62.307 14.823 62.25 13.232 62.455C11.612 62.665 9.846 63.023 9.846 65.023C9.846 66.727 11.164 67.705 12.823 67.705ZM13.028 66.5C11.959 66.5 11.187 66.023 11.187 65.091C11.187 64.068 12.118 63.75 13.164 63.614C13.732 63.545 15.254 63.386 15.482 63.114V64.341C15.482 65.432 14.618 66.5 13.027 66.5H13.028ZM23.066 58.773H21.202V56.682H19.862V58.773H18.543V59.909H19.861V65.364C19.861 66.886 21.089 67.614 22.225 67.614C22.725 67.614 23.043 67.523 23.225 67.455L22.952 66.25C22.839 66.273 22.657 66.318 22.362 66.318C21.77 66.318 21.202 66.136 21.202 65V59.909H23.066V58.773ZM28.648 67.682C30.421 67.682 31.716 66.795 32.125 65.477L30.83 65.114C30.49 66.023 29.7 66.477 28.648 66.477C27.074 66.477 25.989 65.46 25.927 63.591H32.262V63.023C32.262 59.773 30.33 58.659 28.512 58.659C26.148 58.659 24.58 60.523 24.58 63.205C24.58 65.886 26.125 67.682 28.648 67.682ZM25.927 62.432C26.017 61.074 26.977 59.864 28.512 59.864C29.966 59.864 30.898 60.955 30.898 62.432H25.927ZM34.302 67.5H35.642V61.977C35.642 60.795 36.574 59.932 37.847 59.932C38.205 59.932 38.574 60 38.665 60.023V58.659C38.4306 58.6451 38.1958 58.6374 37.961 58.636C36.915 58.636 36.006 59.227 35.688 60.091H35.598V58.773H34.302V67.5ZM40.255 67.5H41.595V58.773H40.255V67.5ZM40.937 57.318C41.459 57.318 41.891 56.909 41.891 56.409C41.891 55.909 41.459 55.5 40.937 55.5C40.414 55.5 39.982 55.909 39.982 56.409C39.982 56.909 40.414 57.318 40.937 57.318ZM45.393 62.25C45.393 60.727 46.336 59.864 47.62 59.864C48.864 59.864 49.62 60.676 49.62 62.045V67.5H50.96V61.955C50.96 59.727 49.773 58.659 48.006 58.659C46.688 58.659 45.87 59.25 45.461 60.136H45.347V58.773H44.052V67.5H45.392V62.25H45.393ZM55.979 67.705C57.502 67.705 58.297 66.886 58.57 66.318H58.638V67.5H59.979V61.75C59.979 58.977 57.866 58.659 56.752 58.659C55.434 58.659 53.934 59.114 53.252 60.705L54.525 61.159C54.82 60.523 55.519 59.841 56.797 59.841C58.03 59.841 58.638 60.494 58.638 61.614V61.659C58.638 62.307 57.979 62.25 56.388 62.455C54.769 62.665 53.002 63.023 53.002 65.023C53.002 66.727 54.32 67.705 55.979 67.705ZM56.184 66.5C55.116 66.5 54.343 66.023 54.343 65.091C54.343 64.068 55.275 63.75 56.32 63.614C56.888 63.545 58.411 63.386 58.638 63.114V64.341C58.638 65.432 57.775 66.5 56.184 66.5ZM66.472 57.114H70.131V67.5H71.54V57.114H75.199V55.864H66.472V57.114ZM78.573 67.705C80.096 67.705 80.891 66.886 81.164 66.318H81.232V67.5H82.573V61.75C82.573 58.977 80.459 58.659 79.346 58.659C78.028 58.659 76.528 59.114 75.846 60.705L77.118 61.159C77.414 60.523 78.113 59.841 79.391 59.841C80.624 59.841 81.232 60.494 81.232 61.614V61.659C81.232 62.307 80.573 62.25 78.982 62.455C77.363 62.665 75.596 63.023 75.596 65.023C75.596 66.727 76.914 67.705 78.573 67.705ZM78.778 66.5C77.709 66.5 76.937 66.023 76.937 65.091C76.937 64.068 77.868 63.75 78.914 63.614C79.482 63.545 81.005 63.386 81.232 63.114V64.341C81.232 65.432 80.368 66.5 78.778 66.5ZM88.816 58.773H86.952V56.682H85.611V58.773H84.293V59.909H85.611V65.364C85.611 66.886 86.839 67.614 87.975 67.614C88.475 67.614 88.793 67.523 88.975 67.455L88.702 66.25C88.589 66.273 88.407 66.318 88.111 66.318C87.52 66.318 86.952 66.136 86.952 65V59.909H88.816V58.773ZM93.401 67.705C94.924 67.705 95.719 66.886 95.992 66.318H96.06V67.5H97.401V61.75C97.401 58.977 95.287 58.659 94.174 58.659C92.856 58.659 91.356 59.114 90.674 60.705L91.947 61.159C92.242 60.523 92.941 59.841 94.219 59.841C95.452 59.841 96.06 60.494 96.06 61.614V61.659C96.06 62.307 95.401 62.25 93.81 62.455C92.191 62.665 90.424 63.023 90.424 65.023C90.424 66.727 91.742 67.705 93.401 67.705ZM93.606 66.5C92.537 66.5 91.765 66.023 91.765 65.091C91.765 64.068 92.697 63.75 93.742 63.614C94.31 63.545 95.833 63.386 96.06 63.114V64.341C96.06 65.432 95.197 66.5 93.606 66.5ZM99.849 67.5H101.189V61.977C101.189 60.795 102.121 59.932 103.394 59.932C103.752 59.932 104.121 60 104.212 60.023V58.659C103.978 58.6451 103.743 58.6374 103.508 58.636C102.462 58.636 101.553 59.227 101.235 60.091H101.144V58.773H99.849V67.5ZM109.081 67.682C111.445 67.682 113.036 65.886 113.036 63.182C113.036 60.455 111.445 58.659 109.081 58.659C106.718 58.659 105.127 60.455 105.127 63.182C105.127 65.886 106.718 67.682 109.081 67.682ZM109.081 66.477C107.286 66.477 106.468 64.932 106.468 63.182C106.468 61.432 107.286 59.864 109.081 59.864C110.877 59.864 111.695 61.432 111.695 63.182C111.695 64.932 110.877 66.477 109.081 66.477ZM121.907 58.773H120.452L118.043 65.727H117.952L115.543 58.773H114.089L117.316 67.5H118.679L121.907 58.773ZM125.979 67.705C127.502 67.705 128.297 66.886 128.57 66.318H128.638V67.5H129.979V61.75C129.979 58.977 127.866 58.659 126.752 58.659C125.434 58.659 123.934 59.114 123.252 60.705L124.525 61.159C124.82 60.523 125.519 59.841 126.797 59.841C128.03 59.841 128.638 60.494 128.638 61.614V61.659C128.638 62.307 127.979 62.25 126.388 62.455C124.769 62.665 123.002 63.023 123.002 65.023C123.002 66.727 124.32 67.705 125.979 67.705ZM126.184 66.5C125.116 66.5 124.343 66.023 124.343 65.091C124.343 64.068 125.275 63.75 126.32 63.614C126.888 63.545 128.411 63.386 128.638 63.114V64.341C128.638 65.432 127.775 66.5 126.184 66.5Z" fill="#039DFB"/>
<defs>
<linearGradient id="paint0_linear" x1="52.59" y1="39.167" x2="78.59" y2="12.5" gradientUnits="userSpaceOnUse">
<stop stop-color="#019CFA"/>
<stop offset="1" stop-color="#33AFFC"/>
</linearGradient>
</defs>
</svg>
